<mxfile host="app.diagrams.net" agent="Mozilla/5.0 (Macintosh; Intel Mac OS X 10_15_7) AppleWebKit/537.36 (KHTML, like Gecko) Chrome/135.0.0.0 Safari/537.36 OPR/120.0.0.0" version="28.1.0">
  <diagram name="Page-1" id="oBU05R44UXi0feXC7y7d">
    <mxGraphModel dx="1286" dy="618" grid="1" gridSize="10" guides="1" tooltips="1" connect="1" arrows="1" fold="1" page="1" pageScale="1" pageWidth="827" pageHeight="1169" math="0" shadow="0">
      <root>
        <mxCell id="0" />
        <mxCell id="1" parent="0" />
        <mxCell id="T_PSCalrxBw_IGnm-Epd-1" value="index.js&lt;div&gt;imports mongoose.&lt;/div&gt;" style="rounded=0;whiteSpace=wrap;html=1;" parent="1" vertex="1">
          <mxGeometry x="294" y="200" width="120" height="80" as="geometry" />
        </mxCell>
        <mxCell id="YFIp8gRq__ZYFWO32oPo-2" value="mongoose" style="rounded=1;whiteSpace=wrap;html=1;rotation=90;" vertex="1" parent="1">
          <mxGeometry x="63.75" y="246.25" width="280" height="20" as="geometry" />
        </mxCell>
        <mxCell id="YFIp8gRq__ZYFWO32oPo-3" value="" style="shape=flexArrow;endArrow=classic;html=1;rounded=0;" edge="1" parent="1">
          <mxGeometry width="50" height="50" relative="1" as="geometry">
            <mxPoint x="290" y="220" as="sourcePoint" />
            <mxPoint x="220" y="220" as="targetPoint" />
          </mxGeometry>
        </mxCell>
        <mxCell id="YFIp8gRq__ZYFWO32oPo-4" value="" style="shape=flexArrow;endArrow=classic;html=1;rounded=0;" edge="1" parent="1">
          <mxGeometry width="50" height="50" relative="1" as="geometry">
            <mxPoint x="220" y="280" as="sourcePoint" />
            <mxPoint x="290" y="280" as="targetPoint" />
            <Array as="points">
              <mxPoint x="250" y="280" />
            </Array>
          </mxGeometry>
        </mxCell>
        <mxCell id="YFIp8gRq__ZYFWO32oPo-6" value="" style="shape=flexArrow;endArrow=classic;html=1;rounded=0;width=8.666666666666666;endSize=6.446666666666666;" edge="1" parent="1">
          <mxGeometry width="50" height="50" relative="1" as="geometry">
            <mxPoint x="110" y="270" as="sourcePoint" />
            <mxPoint x="180" y="270" as="targetPoint" />
            <Array as="points" />
          </mxGeometry>
        </mxCell>
        <mxCell id="YFIp8gRq__ZYFWO32oPo-8" value="" style="shape=flexArrow;endArrow=classic;html=1;rounded=0;" edge="1" parent="1">
          <mxGeometry width="50" height="50" relative="1" as="geometry">
            <mxPoint x="180" y="220" as="sourcePoint" />
            <mxPoint x="110" y="220" as="targetPoint" />
          </mxGeometry>
        </mxCell>
        <mxCell id="YFIp8gRq__ZYFWO32oPo-10" value="" style="shape=curlyBracket;whiteSpace=wrap;html=1;rounded=1;flipH=1;labelPosition=right;verticalLabelPosition=middle;align=left;verticalAlign=middle;rotation=-90;" vertex="1" parent="1">
          <mxGeometry x="254" y="120" width="20" height="80" as="geometry" />
        </mxCell>
        <mxCell id="YFIp8gRq__ZYFWO32oPo-12" value="REST APIs" style="text;strokeColor=none;align=center;fillColor=none;html=1;verticalAlign=middle;whiteSpace=wrap;rounded=0;" vertex="1" parent="1">
          <mxGeometry x="240" y="110" width="60" height="30" as="geometry" />
        </mxCell>
        <mxCell id="YFIp8gRq__ZYFWO32oPo-13" value="cluster." style="shape=cylinder3;whiteSpace=wrap;html=1;boundedLbl=1;backgroundOutline=1;size=15;" vertex="1" parent="1">
          <mxGeometry x="40" y="210" width="60" height="90" as="geometry" />
        </mxCell>
        <mxCell id="YFIp8gRq__ZYFWO32oPo-14" value="mongoDB" style="shape=datastore;whiteSpace=wrap;html=1;" vertex="1" parent="1">
          <mxGeometry y="20" width="140" height="110" as="geometry" />
        </mxCell>
        <mxCell id="YFIp8gRq__ZYFWO32oPo-15" value="" style="shape=flexArrow;endArrow=classic;startArrow=classic;html=1;rounded=0;exitX=0.5;exitY=0;exitDx=0;exitDy=0;exitPerimeter=0;entryX=0.5;entryY=1;entryDx=0;entryDy=0;" edge="1" parent="1" source="YFIp8gRq__ZYFWO32oPo-13" target="YFIp8gRq__ZYFWO32oPo-14">
          <mxGeometry width="100" height="100" relative="1" as="geometry">
            <mxPoint x="50" y="200" as="sourcePoint" />
            <mxPoint x="110" y="140" as="targetPoint" />
            <Array as="points" />
          </mxGeometry>
        </mxCell>
        <mxCell id="YFIp8gRq__ZYFWO32oPo-16" value="userDetails.js&lt;div&gt;contains user Schema&lt;/div&gt;" style="rounded=0;whiteSpace=wrap;html=1;" vertex="1" parent="1">
          <mxGeometry x="500" y="80" width="120" height="60" as="geometry" />
        </mxCell>
        <mxCell id="YFIp8gRq__ZYFWO32oPo-18" value="adminDetails.js&lt;div&gt;contains admin Schema&lt;/div&gt;" style="rounded=0;whiteSpace=wrap;html=1;" vertex="1" parent="1">
          <mxGeometry x="500" y="320" width="120" height="60" as="geometry" />
        </mxCell>
        <mxCell id="YFIp8gRq__ZYFWO32oPo-19" value="" style="endArrow=classic;html=1;rounded=0;exitX=0;exitY=0.5;exitDx=0;exitDy=0;entryX=1;entryY=0.5;entryDx=0;entryDy=0;" edge="1" parent="1" source="YFIp8gRq__ZYFWO32oPo-18" target="T_PSCalrxBw_IGnm-Epd-1">
          <mxGeometry width="50" height="50" relative="1" as="geometry">
            <mxPoint x="440" y="260" as="sourcePoint" />
            <mxPoint x="490" y="210" as="targetPoint" />
          </mxGeometry>
        </mxCell>
        <mxCell id="YFIp8gRq__ZYFWO32oPo-20" value="" style="endArrow=classic;html=1;rounded=0;exitX=0;exitY=0.5;exitDx=0;exitDy=0;entryX=1;entryY=0.5;entryDx=0;entryDy=0;" edge="1" parent="1" source="YFIp8gRq__ZYFWO32oPo-16" target="T_PSCalrxBw_IGnm-Epd-1">
          <mxGeometry width="50" height="50" relative="1" as="geometry">
            <mxPoint x="516" y="210" as="sourcePoint" />
            <mxPoint x="430" y="160" as="targetPoint" />
          </mxGeometry>
        </mxCell>
        <mxCell id="YFIp8gRq__ZYFWO32oPo-25" value="Exporting Schema to index.js" style="text;html=1;align=center;verticalAlign=middle;whiteSpace=wrap;rounded=0;" vertex="1" parent="1">
          <mxGeometry x="440" y="160" width="60" height="30" as="geometry" />
        </mxCell>
        <mxCell id="YFIp8gRq__ZYFWO32oPo-26" value="Exporting Schema to index.js" style="text;html=1;align=center;verticalAlign=middle;whiteSpace=wrap;rounded=0;" vertex="1" parent="1">
          <mxGeometry x="440" y="270" width="60" height="30" as="geometry" />
        </mxCell>
        <mxCell id="YFIp8gRq__ZYFWO32oPo-27" value="/admin-Register API&amp;nbsp;&lt;div&gt;&amp;lt;POST&amp;gt;&lt;/div&gt;" style="ellipse;whiteSpace=wrap;html=1;" vertex="1" parent="1">
          <mxGeometry x="254" y="410" width="76" height="60" as="geometry" />
        </mxCell>
        <mxCell id="YFIp8gRq__ZYFWO32oPo-28" value="/admin-Login API &amp;lt;POST&amp;gt;" style="ellipse;whiteSpace=wrap;html=1;" vertex="1" parent="1">
          <mxGeometry x="390" y="400" width="76" height="60" as="geometry" />
        </mxCell>
        <mxCell id="YFIp8gRq__ZYFWO32oPo-29" value="/get-Users API &amp;lt;POST&amp;gt;" style="ellipse;whiteSpace=wrap;html=1;" vertex="1" parent="1">
          <mxGeometry x="390" y="70" width="76" height="60" as="geometry" />
        </mxCell>
        <mxCell id="YFIp8gRq__ZYFWO32oPo-30" value="/user-Register API &amp;lt;POST&amp;gt;" style="ellipse;whiteSpace=wrap;html=1;" vertex="1" parent="1">
          <mxGeometry x="280" width="76" height="60" as="geometry" />
        </mxCell>
        <mxCell id="YFIp8gRq__ZYFWO32oPo-31" value="" style="endArrow=none;dashed=1;html=1;dashPattern=1 3;strokeWidth=2;rounded=0;exitX=0.5;exitY=0;exitDx=0;exitDy=0;entryX=0.451;entryY=0.991;entryDx=0;entryDy=0;entryPerimeter=0;" edge="1" parent="1" source="YFIp8gRq__ZYFWO32oPo-27" target="T_PSCalrxBw_IGnm-Epd-1">
          <mxGeometry width="50" height="50" relative="1" as="geometry">
            <mxPoint x="340" y="290" as="sourcePoint" />
            <mxPoint x="390" y="240" as="targetPoint" />
          </mxGeometry>
        </mxCell>
        <mxCell id="YFIp8gRq__ZYFWO32oPo-32" value="" style="endArrow=none;dashed=1;html=1;dashPattern=1 3;strokeWidth=2;rounded=0;exitX=0.5;exitY=0;exitDx=0;exitDy=0;entryX=0.451;entryY=0.991;entryDx=0;entryDy=0;entryPerimeter=0;" edge="1" parent="1" source="YFIp8gRq__ZYFWO32oPo-28" target="T_PSCalrxBw_IGnm-Epd-1">
          <mxGeometry width="50" height="50" relative="1" as="geometry">
            <mxPoint x="340" y="290" as="sourcePoint" />
            <mxPoint x="390" y="240" as="targetPoint" />
          </mxGeometry>
        </mxCell>
        <mxCell id="YFIp8gRq__ZYFWO32oPo-33" value="" style="endArrow=none;dashed=1;html=1;dashPattern=1 3;strokeWidth=2;rounded=0;exitX=0.5;exitY=1;exitDx=0;exitDy=0;entryX=0.5;entryY=0;entryDx=0;entryDy=0;" edge="1" parent="1" source="YFIp8gRq__ZYFWO32oPo-29" target="T_PSCalrxBw_IGnm-Epd-1">
          <mxGeometry width="50" height="50" relative="1" as="geometry">
            <mxPoint x="340" y="290" as="sourcePoint" />
            <mxPoint x="390" y="240" as="targetPoint" />
          </mxGeometry>
        </mxCell>
        <mxCell id="YFIp8gRq__ZYFWO32oPo-37" value="" style="endArrow=none;dashed=1;html=1;dashPattern=1 3;strokeWidth=2;rounded=0;exitX=0.5;exitY=1;exitDx=0;exitDy=0;entryX=0.5;entryY=0;entryDx=0;entryDy=0;" edge="1" parent="1" source="YFIp8gRq__ZYFWO32oPo-30" target="T_PSCalrxBw_IGnm-Epd-1">
          <mxGeometry width="50" height="50" relative="1" as="geometry">
            <mxPoint x="340" y="290" as="sourcePoint" />
            <mxPoint x="390" y="240" as="targetPoint" />
          </mxGeometry>
        </mxCell>
        <mxCell id="YFIp8gRq__ZYFWO32oPo-38" value="" style="image;aspect=fixed;perimeter=ellipsePerimeter;html=1;align=center;shadow=0;dashed=0;spacingTop=3;image=img/lib/active_directory/database.svg;" vertex="1" parent="1">
          <mxGeometry y="373" width="50" height="37" as="geometry" />
        </mxCell>
        <mxCell id="YFIp8gRq__ZYFWO32oPo-39" value="" style="image;aspect=fixed;perimeter=ellipsePerimeter;html=1;align=center;shadow=0;dashed=0;spacingTop=3;image=img/lib/active_directory/database.svg;" vertex="1" parent="1">
          <mxGeometry x="110" y="373" width="50" height="37" as="geometry" />
        </mxCell>
        <mxCell id="YFIp8gRq__ZYFWO32oPo-40" value="" style="endArrow=classic;startArrow=classic;html=1;rounded=0;entryX=0.5;entryY=1;entryDx=0;entryDy=0;entryPerimeter=0;" edge="1" parent="1" target="YFIp8gRq__ZYFWO32oPo-13">
          <mxGeometry width="50" height="50" relative="1" as="geometry">
            <mxPoint x="30" y="370" as="sourcePoint" />
            <mxPoint x="60" y="310" as="targetPoint" />
          </mxGeometry>
        </mxCell>
        <mxCell id="YFIp8gRq__ZYFWO32oPo-41" value="" style="endArrow=classic;startArrow=classic;html=1;rounded=0;entryX=0.5;entryY=1;entryDx=0;entryDy=0;entryPerimeter=0;exitX=0.5;exitY=0;exitDx=0;exitDy=0;" edge="1" parent="1" source="YFIp8gRq__ZYFWO32oPo-39" target="YFIp8gRq__ZYFWO32oPo-13">
          <mxGeometry width="50" height="50" relative="1" as="geometry">
            <mxPoint x="30" y="370" as="sourcePoint" />
            <mxPoint x="60" y="310" as="targetPoint" />
          </mxGeometry>
        </mxCell>
        <mxCell id="YFIp8gRq__ZYFWO32oPo-45" value="userDetails" style="text;html=1;align=center;verticalAlign=middle;whiteSpace=wrap;rounded=0;" vertex="1" parent="1">
          <mxGeometry y="425" width="60" height="30" as="geometry" />
        </mxCell>
        <mxCell id="YFIp8gRq__ZYFWO32oPo-47" value="AdminDetails" style="text;html=1;align=center;verticalAlign=middle;whiteSpace=wrap;rounded=0;" vertex="1" parent="1">
          <mxGeometry x="110" y="425" width="60" height="30" as="geometry" />
        </mxCell>
      </root>
    </mxGraphModel>
  </diagram>
</mxfile>
